<svg width="151" height="77" viewBox="0 0 151 77" fill="none" xmlns="http://www.w3.org/2000/svg">
<path d="M20.9609 1.875L28.5781 25.6172L36.1719 1.875H47V36H38.75V28.0312L39.5469 11.7188L31.2969 36H25.8594L17.5859 11.6953L18.3828 28.0312V36H10.1562V1.875H20.9609ZM50.8906 23.0859C50.8906 20.5547 51.3828 18.3047 52.3672 16.3359C53.3516 14.3516 54.7656 12.8281 56.6094 11.7656C58.4531 10.7031 60.6172 10.1719 63.1016 10.1719C66.8984 10.1719 69.8906 11.3516 72.0781 13.7109C74.2656 16.0547 75.3594 19.25 75.3594 23.2969V23.5781C75.3594 27.5312 74.2578 30.6719 72.0547 33C69.8672 35.3125 66.8984 36.4688 63.1484 36.4688C59.5391 36.4688 56.6406 35.3906 54.4531 33.2344C52.2656 31.0625 51.0859 28.125 50.9141 24.4219L50.8906 23.0859ZM58.7891 23.5781C58.7891 25.9219 59.1562 27.6406 59.8906 28.7344C60.625 29.8281 61.7109 30.375 63.1484 30.375C65.9609 30.375 67.3984 28.2109 67.4609 23.8828V23.0859C67.4609 18.5391 66.0078 16.2656 63.1016 16.2656C60.4609 16.2656 59.0312 18.2266 58.8125 22.1484L58.7891 23.5781ZM88.5781 26.6016L92.5859 10.6406H100.906L92.6328 36H84.5703L76.2969 10.6406H84.6406L88.5781 26.6016ZM111.594 36H103.672V10.6406H111.594V36ZM103.203 4.10156C103.203 2.97656 103.609 2.05469 104.422 1.33594C105.234 0.617187 106.289 0.257812 107.586 0.257812C108.883 0.257812 109.938 0.617187 110.75 1.33594C111.562 2.05469 111.969 2.97656 111.969 4.10156C111.969 5.22656 111.562 6.14844 110.75 6.86719C109.938 7.58594 108.883 7.94531 107.586 7.94531C106.289 7.94531 105.234 7.58594 104.422 6.86719C103.609 6.14844 103.203 5.22656 103.203 4.10156ZM128.75 36.4688C124.859 36.4688 121.711 35.3125 119.305 33C116.898 30.6719 115.695 27.6484 115.695 23.9297V23.2734C115.695 20.6797 116.172 18.3906 117.125 16.4062C118.094 14.4219 119.5 12.8906 121.344 11.8125C123.188 10.7187 125.375 10.1719 127.906 10.1719C131.469 10.1719 134.281 11.2812 136.344 13.5C138.406 15.7031 139.438 18.7812 139.438 22.7344V25.8047H123.734C124.016 27.2266 124.633 28.3438 125.586 29.1562C126.539 29.9688 127.773 30.375 129.289 30.375C131.789 30.375 133.742 29.5 135.148 27.75L138.758 32.0156C137.773 33.375 136.375 34.4609 134.562 35.2734C132.766 36.0703 130.828 36.4688 128.75 36.4688ZM127.859 16.2656C125.547 16.2656 124.172 17.7969 123.734 20.8594H131.703V20.25C131.734 18.9844 131.414 18.0078 130.742 17.3203C130.07 16.6172 129.109 16.2656 127.859 16.2656Z" fill="#464646"/>
<path d="M10.8594 41.875L18.4766 65.6172L26.0703 41.875H36.8984V76H28.6484V68.0312L29.4453 51.7188L21.1953 76H15.7578L7.48438 51.6953L8.28125 68.0312V76H0.0546875V41.875H10.8594ZM56.0703 76C55.7891 75.4844 55.5391 74.7266 55.3203 73.7266C53.8672 75.5547 51.8359 76.4688 49.2266 76.4688C46.8359 76.4688 44.8047 75.75 43.1328 74.3125C41.4609 72.8594 40.625 71.0391 40.625 68.8516C40.625 66.1016 41.6406 64.0234 43.6719 62.6172C45.7031 61.2109 48.6562 60.5078 52.5312 60.5078H54.9688V59.1719C54.9688 56.8438 53.9609 55.6797 51.9453 55.6797C50.0703 55.6797 49.1328 56.6016 49.1328 58.4453H41.2344C41.2344 55.9922 42.2734 54 44.3516 52.4688C46.4453 50.9375 49.1094 50.1719 52.3438 50.1719C55.5781 50.1719 58.1328 50.9609 60.0078 52.5391C61.8828 54.1172 62.8438 56.2812 62.8906 59.0312V70.2578C62.9219 72.5859 63.2812 74.3672 63.9688 75.6016V76H56.0703ZM51.125 70.8438C52.1094 70.8438 52.9219 70.6328 53.5625 70.2109C54.2188 69.7891 54.6875 69.3125 54.9688 68.7812V64.7266H52.6719C49.9219 64.7266 48.5469 65.9609 48.5469 68.4297C48.5469 69.1484 48.7891 69.7344 49.2734 70.1875C49.7578 70.625 50.375 70.8438 51.125 70.8438ZM80.5625 68.875C80.5625 68.2031 80.2109 67.6641 79.5078 67.2578C78.8047 66.8516 77.4688 66.4297 75.5 65.9922C73.5312 65.5547 71.9062 64.9844 70.625 64.2812C69.3438 63.5625 68.3672 62.6953 67.6953 61.6797C67.0234 60.6641 66.6875 59.5 66.6875 58.1875C66.6875 55.8594 67.6484 53.9453 69.5703 52.4453C71.4922 50.9297 74.0078 50.1719 77.1172 50.1719C80.4609 50.1719 83.1484 50.9297 85.1797 52.4453C87.2109 53.9609 88.2266 55.9531 88.2266 58.4219H80.3047C80.3047 56.3906 79.2344 55.375 77.0938 55.375C76.2656 55.375 75.5703 55.6094 75.0078 56.0781C74.4453 56.5312 74.1641 57.1016 74.1641 57.7891C74.1641 58.4922 74.5078 59.0625 75.1953 59.5C75.8828 59.9375 76.9766 60.2969 78.4766 60.5781C79.9922 60.8594 81.3203 61.1953 82.4609 61.5859C86.2734 62.8984 88.1797 65.25 88.1797 68.6406C88.1797 70.9531 87.1484 72.8359 85.0859 74.2891C83.0391 75.7422 80.3828 76.4688 77.1172 76.4688C74.9453 76.4688 73.0078 76.0781 71.3047 75.2969C69.6016 74.5156 68.2734 73.4531 67.3203 72.1094C66.3672 70.7656 65.8906 69.3516 65.8906 67.8672H73.2734C73.3047 69.0391 73.6953 69.8984 74.4453 70.4453C75.1953 70.9766 76.1562 71.2422 77.3281 71.2422C78.4062 71.2422 79.2109 71.0234 79.7422 70.5859C80.2891 70.1484 80.5625 69.5781 80.5625 68.875ZM101.094 44.3359V50.6406H105.266V56.125H101.094V67.7266C101.094 68.6797 101.266 69.3438 101.609 69.7188C101.953 70.0938 102.633 70.2812 103.648 70.2812C104.43 70.2812 105.086 70.2344 105.617 70.1406V75.7891C104.195 76.2422 102.711 76.4688 101.164 76.4688C98.4453 76.4688 96.4375 75.8281 95.1406 74.5469C93.8438 73.2656 93.1953 71.3203 93.1953 68.7109V56.125H89.9609V50.6406H93.1953V44.3359H101.094ZM120.664 76.4688C116.773 76.4688 113.625 75.3125 111.219 73C108.812 70.6719 107.609 67.6484 107.609 63.9297V63.2734C107.609 60.6797 108.086 58.3906 109.039 56.4062C110.008 54.4219 111.414 52.8906 113.258 51.8125C115.102 50.7188 117.289 50.1719 119.82 50.1719C123.383 50.1719 126.195 51.2812 128.258 53.5C130.32 55.7031 131.352 58.7812 131.352 62.7344V65.8047H115.648C115.93 67.2266 116.547 68.3438 117.5 69.1562C118.453 69.9688 119.688 70.375 121.203 70.375C123.703 70.375 125.656 69.5 127.062 67.75L130.672 72.0156C129.688 73.375 128.289 74.4609 126.477 75.2734C124.68 76.0703 122.742 76.4688 120.664 76.4688ZM119.773 56.2656C117.461 56.2656 116.086 57.7969 115.648 60.8594H123.617V60.25C123.648 58.9844 123.328 58.0078 122.656 57.3203C121.984 56.6172 121.023 56.2656 119.773 56.2656ZM149.891 57.7891L147.289 57.6016C144.805 57.6016 143.211 58.3828 142.508 59.9453V76H134.609V50.6406H142.016L142.273 53.8984C143.602 51.4141 145.453 50.1719 147.828 50.1719C148.672 50.1719 149.406 50.2656 150.031 50.4531L149.891 57.7891Z" fill="#FF0000"/>
</svg>
