<svg width="633" height="246" viewBox="0 0 633 246" fill="none" xmlns="http://www.w3.org/2000/svg">
<path d="M105.4 74.6C105.4 75.9333 104.733 76.6 103.4 76.6H58.4C57.8667 76.6 57.6 76.8667 57.6 77.4V120.8C57.6 121.333 57.8667 121.6 58.4 121.6H86C87.3333 121.6 88 122.267 88 123.6V136.2C88 137.533 87.3333 138.2 86 138.2H58.4C57.8667 138.2 57.6 138.467 57.6 139V182.6C57.6 183.133 57.8667 183.4 58.4 183.4H103.4C104.733 183.4 105.4 184.067 105.4 185.4V198C105.4 199.333 104.733 200 103.4 200H40.4C39.0667 200 38.4 199.333 38.4 198V62C38.4 60.6667 39.0667 60 40.4 60H103.4C104.733 60 105.4 60.6667 105.4 62V74.6ZM326.383 59.8C336.649 59.8 344.916 63.5333 351.183 71C357.583 78.3333 360.783 88 360.783 100C360.783 111.733 357.716 121.2 351.583 128.4C345.449 135.6 337.383 139.2 327.383 139.2H308.583C308.049 139.2 307.783 139.467 307.783 140V198C307.783 199.333 307.116 200 305.783 200H290.583C289.249 200 288.583 199.333 288.583 198V61.8C288.583 60.4667 289.249 59.8 290.583 59.8H326.383ZM323.383 123.8C328.849 123.8 333.249 121.733 336.583 117.6C339.916 113.333 341.583 107.6 341.583 100.4C341.583 93.0667 339.916 87.2667 336.583 83C333.249 78.6 328.849 76.4 323.383 76.4H308.583C308.049 76.4 307.783 76.6667 307.783 77.2V123C307.783 123.533 308.049 123.8 308.583 123.8H323.383ZM549.108 199.8C547.774 199.8 547.108 199.133 547.108 197.8V140.6L546.908 139.6L519.108 62.2L518.908 61.4C518.908 60.4667 519.508 60 520.708 60H536.708C537.908 60 538.708 60.5333 539.108 61.6L556.108 116.8C556.241 117.067 556.441 117.2 556.708 117.2C556.974 117.2 557.174 117.067 557.308 116.8L574.308 61.6C574.708 60.5333 575.508 60 576.708 60H592.708C594.174 60 594.708 60.7333 594.308 62.2L566.508 139.6L566.308 140.6V197.8C566.308 199.133 565.641 199.8 564.308 199.8H549.108Z" fill="#FF2323"/>
<path d="M215.928 61.4C216.461 60.4667 217.261 60 218.328 60H233.528C234.861 60 235.528 60.6667 235.528 62V198C235.528 199.333 234.861 200 233.528 200H218.328C216.995 200 216.328 199.333 216.328 198V98.8C216.328 98.4 216.195 98.2 215.928 98.2C215.795 98.2 215.595 98.3333 215.328 98.6L196.128 134.4C195.728 135.333 195.128 135.8 194.328 135.8C193.528 135.8 192.928 135.333 192.528 134.4L173.528 98.8C173.261 98.5333 172.995 98.4 172.728 98.4C172.595 98.4 172.528 98.6 172.528 99V198C172.528 199.333 171.861 200 170.528 200H155.328C153.995 200 153.328 199.333 153.328 198V62C153.328 60.6667 153.995 60 155.328 60H170.528C171.461 60 172.261 60.4667 172.928 61.4L193.928 99C194.061 99.1333 194.261 99.2 194.528 99.2C194.795 99.2 194.995 99.1333 195.128 99L215.928 61.4ZM475.417 60C476.751 60 477.417 60.6667 477.417 62V74.6C477.417 75.9333 476.751 76.6 475.417 76.6H449.217C448.684 76.6 448.417 76.8667 448.417 77.4V198C448.417 199.333 447.751 200 446.417 200H431.217C429.884 200 429.217 199.333 429.217 198V77.4C429.217 76.8667 428.951 76.6 428.417 76.6H403.617C402.284 76.6 401.617 75.9333 401.617 74.6V62C401.617 60.6667 402.284 60 403.617 60H475.417Z" fill="white"/>
<path d="M624 82C628.971 82 633 77.9706 633 73C633 68.0294 628.971 64 624 64C619.029 64 615 68.0294 615 73C615 77.9706 619.029 82 624 82Z" fill="#838383"/>
<path d="M485 228C489.971 228 494 223.971 494 219C494 214.029 489.971 210 485 210C480.029 210 476 214.029 476 219C476 223.971 480.029 228 485 228Z" fill="#838383"/>
<path d="M248 228C252.971 228 257 223.971 257 219C257 214.029 252.971 210 248 210C243.029 210 239 214.029 239 219C239 223.971 243.029 228 248 228Z" fill="#FF0000"/>
<path d="M135 36C139.971 36 144 31.9706 144 27C144 22.0294 139.971 18 135 18C130.029 18 126 22.0294 126 27C126 31.9706 130.029 36 135 36Z" fill="#838383"/>
<path d="M9 91C13.9706 91 18 86.9706 18 82C18 77.0294 13.9706 73 9 73C4.02944 73 0 77.0294 0 82C0 86.9706 4.02944 91 9 91Z" fill="#838383"/>
<path d="M393 54C397.971 54 402 49.9706 402 45C402 40.0294 397.971 36 393 36C388.029 36 384 40.0294 384 45C384 49.9706 388.029 54 393 54Z" fill="#FF0000"/>
<path d="M63 246C67.9706 246 72 241.971 72 237C72 232.029 67.9706 228 63 228C58.0294 228 54 232.029 54 237C54 241.971 58.0294 246 63 246Z" fill="#FF0000"/>
</svg>
