<svg width="112" height="70" viewBox="0 0 112 70" fill="none" xmlns="http://www.w3.org/2000/svg">
<path d="M14.7461 1.40625L21.3203 19.9688L27.8594 1.40625H34.7852V27H29.4941V20.0039L30.0215 7.92773L23.1133 27H19.4922L12.6016 7.94531L13.1289 20.0039V27H7.85547V1.40625H14.7461ZM38.2656 17.3145C38.2656 15.4277 38.6289 13.7461 39.3555 12.2695C40.082 10.793 41.125 9.65039 42.4844 8.8418C43.8555 8.0332 45.4434 7.62891 47.248 7.62891C49.8145 7.62891 51.9062 8.41406 53.5234 9.98438C55.1523 11.5547 56.0605 13.6875 56.248 16.3828L56.2832 17.6836C56.2832 20.6016 55.4688 22.9453 53.8398 24.7148C52.2109 26.4727 50.0254 27.3516 47.2832 27.3516C44.541 27.3516 42.3496 26.4727 40.709 24.7148C39.0801 22.957 38.2656 20.5664 38.2656 17.543V17.3145ZM43.3457 17.6836C43.3457 19.4883 43.6855 20.8711 44.3652 21.832C45.0449 22.7812 46.0176 23.2559 47.2832 23.2559C48.5137 23.2559 49.4746 22.7871 50.166 21.8496C50.8574 20.9004 51.2031 19.3887 51.2031 17.3145C51.2031 15.5449 50.8574 14.1738 50.166 13.2012C49.4746 12.2285 48.502 11.7422 47.248 11.7422C46.0059 11.7422 45.0449 12.2285 44.3652 13.2012C43.6855 14.1621 43.3457 15.6562 43.3457 17.6836ZM66.25 20.7949L69.7832 7.98047H75.0918L68.6758 27H63.8242L57.4082 7.98047H62.7168L66.25 20.7949ZM82.7031 27H77.6055V7.98047H82.7031V27ZM77.3066 3.05859C77.3066 2.29688 77.5586 1.66992 78.0625 1.17773C78.5781 0.685547 79.2754 0.439453 80.1543 0.439453C81.0215 0.439453 81.7129 0.685547 82.2285 1.17773C82.7441 1.66992 83.002 2.29688 83.002 3.05859C83.002 3.83203 82.7383 4.46484 82.2109 4.95703C81.6953 5.44922 81.0098 5.69531 80.1543 5.69531C79.2988 5.69531 78.6074 5.44922 78.0801 4.95703C77.5645 4.46484 77.3066 3.83203 77.3066 3.05859ZM95.6582 27.3516C92.8691 27.3516 90.5957 26.4961 88.8379 24.7852C87.0918 23.0742 86.2188 20.7949 86.2188 17.9473V17.4551C86.2188 15.5449 86.5879 13.8398 87.3262 12.3398C88.0645 10.8281 89.1074 9.66797 90.4551 8.85938C91.8145 8.03906 93.3613 7.62891 95.0957 7.62891C97.6973 7.62891 99.7422 8.44922 101.23 10.0898C102.73 11.7305 103.48 14.0566 103.48 17.0684V19.1426H91.3691C91.5332 20.3848 92.0254 21.3809 92.8457 22.1309C93.6777 22.8809 94.7266 23.2559 95.9922 23.2559C97.9492 23.2559 99.4785 22.5469 100.58 21.1289L103.076 23.9238C102.314 25.002 101.283 25.8457 99.9824 26.4551C98.6816 27.0527 97.2402 27.3516 95.6582 27.3516ZM95.0781 11.7422C94.0703 11.7422 93.25 12.082 92.6172 12.7617C91.9961 13.4414 91.5977 14.4141 91.4219 15.6797H98.4883V15.2754C98.4648 14.1504 98.1602 13.2832 97.5742 12.6738C96.9883 12.0527 96.1562 11.7422 95.0781 11.7422Z" fill="#131313"/>
<path d="M7.09961 43.4062L13.6738 61.9688L20.2129 43.4062H27.1387V69H21.8477V62.0039L22.375 49.9277L15.4668 69H11.8457L4.95508 49.9453L5.48242 62.0039V69H0.208984V43.4062H7.09961ZM42.4316 69C42.1973 68.543 42.0273 67.9746 41.9219 67.2949C40.6914 68.666 39.0918 69.3516 37.123 69.3516C35.2598 69.3516 33.7129 68.8125 32.4824 67.7344C31.2637 66.6562 30.6543 65.2969 30.6543 63.6562C30.6543 61.6406 31.3984 60.0938 32.8867 59.0156C34.3867 57.9375 36.5488 57.3926 39.373 57.3809H41.7109V56.291C41.7109 55.4121 41.4824 54.709 41.0254 54.1816C40.5801 53.6543 39.8711 53.3906 38.8984 53.3906C38.043 53.3906 37.3691 53.5957 36.877 54.0059C36.3965 54.416 36.1562 54.9785 36.1562 55.6934H31.0762C31.0762 54.5918 31.416 53.5723 32.0957 52.6348C32.7754 51.6973 33.7363 50.9648 34.9785 50.4375C36.2207 49.8984 37.6152 49.6289 39.1621 49.6289C41.5059 49.6289 43.3633 50.2207 44.7344 51.4043C46.1172 52.5762 46.8086 54.2285 46.8086 56.3613V64.6055C46.8203 66.4102 47.0723 67.7754 47.5645 68.7012V69H42.4316ZM38.2305 65.4668C38.9805 65.4668 39.6719 65.3027 40.3047 64.9746C40.9375 64.6348 41.4062 64.1836 41.7109 63.6211V60.3516H39.8125C37.2695 60.3516 35.916 61.2305 35.752 62.9883L35.7344 63.2871C35.7344 63.9199 35.957 64.4414 36.4023 64.8516C36.8477 65.2617 37.457 65.4668 38.2305 65.4668ZM61.0117 63.7441C61.0117 63.123 60.7012 62.6367 60.0801 62.2852C59.4707 61.9219 58.4863 61.5996 57.127 61.3184C52.6035 60.3691 50.3418 58.4473 50.3418 55.5527C50.3418 53.8652 51.0391 52.459 52.4336 51.334C53.8398 50.1973 55.6738 49.6289 57.9355 49.6289C60.3496 49.6289 62.2773 50.1973 63.7188 51.334C65.1719 52.4707 65.8984 53.9473 65.8984 55.7637H60.8184C60.8184 55.0371 60.584 54.4395 60.1152 53.9707C59.6465 53.4902 58.9141 53.25 57.918 53.25C57.0625 53.25 56.4004 53.4434 55.9316 53.8301C55.4629 54.2168 55.2285 54.709 55.2285 55.3066C55.2285 55.8691 55.4922 56.3262 56.0195 56.6777C56.5586 57.0176 57.4609 57.3164 58.7266 57.5742C59.9922 57.8203 61.0586 58.1016 61.9258 58.418C64.6094 59.4023 65.9512 61.1074 65.9512 63.5332C65.9512 65.2676 65.207 66.6738 63.7188 67.752C62.2305 68.8184 60.3086 69.3516 57.9531 69.3516C56.3594 69.3516 54.9414 69.0703 53.6992 68.5078C52.4688 67.9336 51.502 67.1543 50.7988 66.1699C50.0957 65.1738 49.7441 64.1016 49.7441 62.9531H54.5605C54.6074 63.8555 54.9414 64.5469 55.5625 65.0273C56.1836 65.5078 57.0156 65.748 58.0586 65.748C59.0312 65.748 59.7637 65.5664 60.2559 65.2031C60.7598 64.8281 61.0117 64.3418 61.0117 63.7441ZM75.3203 45.3047V49.9805H78.5723V53.707H75.3203V63.1992C75.3203 63.9023 75.4551 64.4062 75.7246 64.7109C75.9941 65.0156 76.5098 65.168 77.2715 65.168C77.834 65.168 78.332 65.127 78.7656 65.0449V68.8945C77.7695 69.1992 76.7441 69.3516 75.6895 69.3516C72.127 69.3516 70.3105 67.5527 70.2402 63.9551V53.707H67.4629V49.9805H70.2402V45.3047H75.3203ZM90.1562 69.3516C87.3672 69.3516 85.0938 68.4961 83.3359 66.7852C81.5898 65.0742 80.7168 62.7949 80.7168 59.9473V59.4551C80.7168 57.5449 81.0859 55.8398 81.8242 54.3398C82.5625 52.8281 83.6055 51.668 84.9531 50.8594C86.3125 50.0391 87.8594 49.6289 89.5938 49.6289C92.1953 49.6289 94.2402 50.4492 95.7285 52.0898C97.2285 53.7305 97.9785 56.0566 97.9785 59.0684V61.1426H85.8672C86.0312 62.3848 86.5234 63.3809 87.3438 64.1309C88.1758 64.8809 89.2246 65.2559 90.4902 65.2559C92.4473 65.2559 93.9766 64.5469 95.0781 63.1289L97.5742 65.9238C96.8125 67.002 95.7812 67.8457 94.4805 68.4551C93.1797 69.0527 91.7383 69.3516 90.1562 69.3516ZM89.5762 53.7422C88.5684 53.7422 87.748 54.082 87.1152 54.7617C86.4941 55.4414 86.0957 56.4141 85.9199 57.6797H92.9863V57.2754C92.9629 56.1504 92.6582 55.2832 92.0723 54.6738C91.4863 54.0527 90.6543 53.7422 89.5762 53.7422ZM111.566 54.7441C110.875 54.6504 110.266 54.6035 109.738 54.6035C107.816 54.6035 106.557 55.2539 105.959 56.5547V69H100.879V49.9805H105.678L105.818 52.248C106.838 50.502 108.25 49.6289 110.055 49.6289C110.617 49.6289 111.145 49.7051 111.637 49.8574L111.566 54.7441Z" fill="#FF0000"/>
</svg>
