<svg width="523" height="270" viewBox="0 0 523 270" fill="none" xmlns="http://www.w3.org/2000/svg">
<path d="M261.5 241.332C405.922 241.332 523 238.06 523 234.023C523 229.987 405.922 226.715 261.5 226.715C117.078 226.715 0 229.987 0 234.023C0 238.06 117.078 241.332 261.5 241.332Z" fill="#1F1F1F"/>
<path d="M400.861 154.832C400.531 154.836 400.201 154.841 399.866 154.841C399.531 154.841 399.201 154.836 398.871 154.832C381.366 154.434 368.678 143.506 371.908 132.04L379.783 104.07L381.773 96.9929L417.054 97.594L419.198 104.518L427.638 131.769C431.212 143.298 418.524 154.434 400.861 154.832Z" fill="#3F3D56"/>
<path opacity="0.2" d="M419.198 104.518C413.182 107.953 406.358 109.723 399.43 109.645C392.501 109.566 385.719 107.642 379.783 104.07L381.773 96.9929L417.054 97.594L419.198 104.518Z" fill="black"/>
<path d="M417.709 132.969C419.233 127.293 424.242 119.106 438.29 109.235C462.789 92.0176 448.174 79.1077 447.541 78.5668C446.213 77.4322 446.409 76.1582 447.997 75.7229C448.92 75.5386 449.872 75.5535 450.788 75.7667C451.705 75.9799 452.565 76.3863 453.312 76.9588C454.105 77.6144 472.406 93.2295 444.76 112.655C419.88 130.141 425.17 141.554 425.231 141.664C425.898 142.885 424.828 143.861 422.841 143.848C420.853 143.835 418.7 142.836 418.031 141.616C417.89 141.358 416.289 138.252 417.709 132.969Z" fill="#3F3D56"/>
<path d="M383.582 158.908C383.048 158.908 382.518 158.803 382.025 158.598C381.531 158.394 381.082 158.094 380.704 157.717C380.326 157.339 380.026 156.891 379.821 156.397C379.617 155.904 379.511 155.375 379.512 154.841V137.215C379.512 136.136 379.94 135.102 380.704 134.339C381.467 133.576 382.503 133.148 383.582 133.148C384.662 133.148 385.697 133.576 386.461 134.339C387.224 135.102 387.653 136.136 387.653 137.215V154.841C387.653 155.375 387.548 155.904 387.343 156.397C387.139 156.891 386.839 157.339 386.461 157.717C386.083 158.094 385.634 158.394 385.14 158.598C384.646 158.803 384.117 158.908 383.582 158.908V158.908Z" fill="#3F3D56"/>
<path d="M387.152 117.064C386.928 117.55 386.611 117.986 386.219 118.349C385.827 118.712 385.367 118.994 384.865 119.179C384.364 119.364 383.831 119.449 383.297 119.429C382.762 119.408 382.238 119.283 381.752 119.059L365.726 111.692C364.747 111.241 363.986 110.419 363.613 109.408C363.239 108.397 363.282 107.278 363.733 106.299C364.184 105.32 365.006 104.559 366.018 104.185C367.029 103.811 368.149 103.853 369.129 104.302L385.155 111.669C385.641 111.892 386.078 112.209 386.441 112.601C386.804 112.993 387.086 113.453 387.272 113.954C387.457 114.455 387.542 114.987 387.521 115.521C387.501 116.055 387.375 116.579 387.152 117.064V117.064Z" fill="#3F3D56"/>
<path d="M412.58 117.064C412.804 117.55 413.121 117.986 413.513 118.349C413.905 118.712 414.365 118.994 414.867 119.179C415.368 119.365 415.901 119.449 416.435 119.429C416.969 119.408 417.494 119.283 417.98 119.059L434.006 111.692C434.987 111.242 435.748 110.42 436.122 109.408C436.497 108.396 436.454 107.277 436.002 106.297C435.551 105.317 434.729 104.557 433.716 104.182C432.703 103.808 431.584 103.851 430.603 104.302L414.577 111.669C414.091 111.892 413.654 112.209 413.291 112.601C412.928 112.993 412.646 113.453 412.46 113.954C412.275 114.455 412.19 114.987 412.211 115.521C412.231 116.055 412.357 116.579 412.58 117.064V117.064Z" fill="#3F3D56"/>
<path d="M416.149 158.908C416.684 158.908 417.213 158.803 417.707 158.598C418.201 158.394 418.65 158.094 419.028 157.717C419.406 157.339 419.706 156.891 419.91 156.397C420.115 155.904 420.22 155.375 420.22 154.841V137.215C420.22 136.136 419.791 135.102 419.028 134.339C418.265 133.576 417.229 133.148 416.149 133.148C415.07 133.148 414.034 133.576 413.271 134.339C412.507 135.102 412.079 136.136 412.079 137.215V154.841C412.079 155.375 412.184 155.904 412.388 156.397C412.593 156.891 412.893 157.339 413.271 157.717C413.649 158.094 414.098 158.394 414.592 158.598C415.085 158.803 415.615 158.908 416.149 158.908V158.908Z" fill="#3F3D56"/>
<path d="M433.162 44.801C433.514 44.3583 433.768 43.8461 433.907 43.2982C434.047 42.7502 434.068 42.179 433.97 41.6222L431.755 28.5995L429.539 15.5767C429.419 14.8736 429.117 14.2143 428.661 13.6651C428.206 13.1159 427.614 12.6962 426.944 12.4482C426.275 12.2001 425.552 12.1324 424.848 12.252C424.145 12.3715 423.485 12.674 422.935 13.1291L412.755 21.5576L406.622 26.6354C402.532 25.9087 398.352 25.8458 394.241 26.4489L388.334 21.5576L378.154 13.1291C377.604 12.674 376.944 12.3715 376.24 12.252C375.537 12.1324 374.814 12.2001 374.145 12.4482C373.475 12.6962 372.883 13.1159 372.428 13.6651C371.972 14.2143 371.669 14.8736 371.55 15.5767L369.334 28.5995L367.119 41.6222C367 42.3067 367.061 43.0101 367.296 43.6639C363.499 49.4797 361.331 56.2059 361.018 63.1426C360.704 70.0793 362.257 76.9733 365.514 83.1073C368.771 89.2414 373.613 94.3914 379.537 98.0218C385.462 101.652 392.251 103.63 399.2 103.75C406.149 103.87 413.003 102.128 419.049 98.7039C425.095 95.2802 430.113 90.3003 433.58 84.2824C437.047 78.2644 438.837 71.4282 438.763 64.4847C438.69 57.5413 436.756 50.7444 433.162 44.801V44.801Z" fill="#3F3D56"/>
<path d="M377.133 18.4657C376.892 18.466 376.653 18.5094 376.427 18.5939C376.094 18.7148 375.8 18.922 375.574 19.1942C375.348 19.4665 375.199 19.7938 375.142 20.1428L372.455 35.9353C372.396 36.2835 372.429 36.641 372.552 36.9721C372.675 37.3032 372.883 37.5961 373.155 37.8214C373.427 38.0467 373.754 38.1964 374.102 38.2556C374.451 38.3147 374.809 38.2812 375.14 38.1584L390.172 32.5869C390.503 32.4641 390.796 32.2563 391.022 31.9844C391.247 31.7126 391.397 31.3862 391.456 31.0381C391.515 30.6901 391.482 30.3326 391.359 30.0015C391.236 29.6705 391.028 29.3776 390.756 29.1523L390.756 29.1519L378.411 18.931C378.053 18.6312 377.601 18.4665 377.133 18.4657V18.4657Z" fill="#E6E6E6"/>
<path d="M423.955 18.4657C423.488 18.4665 423.036 18.6312 422.678 18.931L410.333 29.1523C410.061 29.3776 409.853 29.6705 409.73 30.0015C409.607 30.3326 409.573 30.6901 409.633 31.0381C409.692 31.3862 409.842 31.7126 410.067 31.9844C410.293 32.2563 410.586 32.4641 410.917 32.5869L425.949 38.1584C426.28 38.2812 426.638 38.3147 426.986 38.2556C427.335 38.1964 427.662 38.0467 427.934 37.8214C428.206 37.5961 428.414 37.3032 428.537 36.9721C428.66 36.641 428.693 36.2835 428.634 35.9353L425.947 20.1428C425.89 19.7938 425.741 19.4665 425.515 19.1942C425.289 18.922 424.995 18.7148 424.662 18.5939C424.436 18.5094 424.197 18.466 423.955 18.4657Z" fill="#E6E6E6"/>
<path d="M399.866 75.752C402.864 75.752 405.294 73.3239 405.294 70.3287C405.294 67.3336 402.864 64.9055 399.866 64.9055C396.868 64.9055 394.438 67.3336 394.438 70.3287C394.438 73.3239 396.868 75.752 399.866 75.752Z" fill="#E6E6E6"/>
<path d="M399.866 68.9729C401.864 68.9729 403.485 68.3659 403.485 67.6171C403.485 66.8683 401.864 66.2613 399.866 66.2613C397.867 66.2613 396.247 66.8683 396.247 67.6171C396.247 68.3659 397.867 68.9729 399.866 68.9729Z" fill="#3F3D56"/>
<path d="M397.152 73.4923H402.128V79.5934C402.128 79.9198 402.063 80.243 401.938 80.5446C401.813 80.8462 401.63 81.1202 401.399 81.351C401.168 81.5818 400.894 81.7649 400.592 81.8898C400.29 82.0148 399.966 82.079 399.64 82.079V82.079C398.98 82.079 398.347 81.8172 397.881 81.351C397.414 80.8849 397.152 80.2526 397.152 79.5934V73.4923H397.152Z" fill="#FF6584"/>
<path d="M400.168 11.9781C399.907 12.5186 399.654 13.0651 399.415 13.6227C396.608 20.1638 395.662 27.3519 396.68 34.396C397.189 33.6577 397.724 32.8886 398.268 32.111C397.103 25.3505 397.758 18.4018 400.168 11.9781V11.9781Z" fill="#3F3D56"/>
<path d="M404.239 16.9493C403.978 17.4899 403.725 18.0364 403.486 18.594C400.679 25.1351 399.733 32.3233 400.751 39.3673C401.26 38.6291 401.795 37.8599 402.339 37.0823C401.173 30.3218 401.829 23.3731 404.239 16.9493V16.9493Z" fill="#3F3D56"/>
<path d="M416.79 114.546L416.216 107.259L415.643 99.9718C415.612 99.5784 415.478 99.2 415.254 98.8747C415.03 98.5495 414.725 98.2887 414.368 98.1188C414.012 97.9489 413.617 97.8757 413.223 97.9067C412.829 97.9376 412.45 98.0716 412.125 98.2951L406.096 102.435L401.693 105.458C401.411 105.129 401.062 104.864 400.668 104.683C400.275 104.502 399.847 104.408 399.414 104.408C398.98 104.408 398.552 104.502 398.159 104.683C397.765 104.864 397.416 105.129 397.134 105.458L392.732 102.435L386.702 98.295C386.377 98.0715 385.998 97.9376 385.604 97.9066C385.21 97.8757 384.815 97.9488 384.459 98.1188C384.102 98.2887 383.797 98.5494 383.573 98.8747C383.35 99.2 383.215 99.5783 383.184 99.9718L382.611 107.259L382.038 114.546C382.007 114.939 382.08 115.334 382.25 115.69C382.42 116.046 382.681 116.351 383.006 116.575C383.332 116.798 383.711 116.932 384.104 116.963C384.498 116.994 384.893 116.921 385.25 116.751L391.853 113.604L397.278 111.018C397.557 111.301 397.889 111.525 398.256 111.678C398.623 111.831 399.016 111.91 399.414 111.91C399.811 111.91 400.204 111.831 400.571 111.678C400.938 111.525 401.27 111.301 401.549 111.018L406.975 113.604L413.577 116.751C413.934 116.921 414.329 116.994 414.723 116.963C415.116 116.932 415.495 116.798 415.821 116.575C416.146 116.351 416.407 116.046 416.577 115.69C416.747 115.334 416.821 114.939 416.79 114.546V114.546Z" fill="#FF002E"/>
<path d="M392.629 65.8094C393.378 65.8094 393.986 65.2024 393.986 64.4536C393.986 63.7048 393.378 63.0978 392.629 63.0978C391.879 63.0978 391.272 63.7048 391.272 64.4536C391.272 65.2024 391.879 65.8094 392.629 65.8094Z" fill="#E6E6E6"/>
<path d="M407.103 65.8094C407.853 65.8094 408.46 65.2024 408.46 64.4536C408.46 63.7048 407.853 63.0978 407.103 63.0978C406.354 63.0978 405.746 63.7048 405.746 64.4536C405.746 65.2024 406.354 65.8094 407.103 65.8094Z" fill="#E6E6E6"/>
<path d="M137.313 142.853C137.643 142.858 137.973 142.863 138.308 142.863C138.643 142.863 138.973 142.858 139.303 142.853C156.808 142.456 169.495 131.528 166.266 120.062L158.391 92.0921L156.401 85.0149L121.12 85.6159L118.976 92.5396L110.535 119.791C106.962 131.32 119.65 142.456 137.313 142.853Z" fill="#3F3D56"/>
<path opacity="0.2" d="M118.976 92.5396C124.991 95.9753 131.816 97.7452 138.744 97.6665C145.673 97.5879 152.455 95.6636 158.391 92.0922L156.401 85.0149L121.12 85.6159L118.976 92.5396Z" fill="black"/>
<path d="M116.18 117.675C112.372 113.197 104.338 107.939 87.4139 105.024C57.8969 99.9362 65.5774 82.0195 65.9182 81.2598C66.633 79.6664 65.9101 78.5988 64.2879 78.8845C63.3749 79.1125 62.5212 79.5328 61.7841 80.1173C61.047 80.7018 60.4434 81.437 60.0139 82.2737C59.5777 83.2053 49.7242 105.143 83.0305 110.881C113.006 116.048 113.113 128.625 113.105 128.75C113.025 130.139 114.41 130.564 116.201 129.703C117.992 128.841 119.51 127.017 119.592 125.629C119.609 125.336 119.725 121.844 116.18 117.675Z" fill="#3F3D56"/>
<path d="M154.591 146.93C155.126 146.93 155.655 146.825 156.149 146.62C156.643 146.416 157.092 146.116 157.47 145.739C157.848 145.361 158.148 144.913 158.353 144.419C158.557 143.926 158.662 143.397 158.662 142.863V125.237C158.661 124.159 158.232 123.126 157.468 122.364C156.705 121.602 155.67 121.175 154.591 121.175C153.513 121.175 152.478 121.602 151.715 122.364C150.951 123.126 150.522 124.159 150.521 125.237V142.863C150.521 143.397 150.626 143.926 150.83 144.419C151.035 144.913 151.335 145.361 151.713 145.739C152.091 146.116 152.54 146.416 153.034 146.62C153.528 146.825 154.057 146.93 154.591 146.93V146.93Z" fill="#3F3D56"/>
<path d="M151.022 105.086C151.246 105.572 151.563 106.008 151.955 106.371C152.347 106.734 152.807 107.016 153.309 107.201C153.81 107.386 154.343 107.471 154.877 107.451C155.411 107.43 155.936 107.305 156.422 107.081L172.448 99.7144C172.934 99.4915 173.371 99.175 173.735 98.7831C174.099 98.3911 174.382 97.9314 174.568 97.4302C174.753 96.929 174.838 96.3961 174.818 95.8619C174.798 95.3278 174.672 94.803 174.448 94.3174C174.225 93.8318 173.908 93.3951 173.515 93.032C173.122 92.669 172.662 92.3869 172.16 92.2018C171.658 92.0167 171.125 91.9322 170.59 91.9532C170.056 91.9742 169.53 92.1003 169.045 92.3242L153.019 99.6911C152.533 99.9144 152.096 100.231 151.733 100.623C151.37 101.015 151.088 101.475 150.902 101.976C150.717 102.476 150.632 103.009 150.653 103.543C150.673 104.077 150.799 104.601 151.022 105.086V105.086Z" fill="#3F3D56"/>
<path d="M125.594 105.086C125.37 105.572 125.053 106.008 124.661 106.371C124.269 106.734 123.809 107.016 123.307 107.201C122.806 107.386 122.273 107.471 121.739 107.451C121.204 107.43 120.68 107.305 120.194 107.081L104.168 99.7144C103.682 99.4915 103.244 99.175 102.881 98.7831C102.517 98.3911 102.234 97.9314 102.048 97.4302C101.863 96.929 101.777 96.3961 101.798 95.8619C101.818 95.3278 101.944 94.803 102.168 94.3174C102.391 93.8318 102.708 93.3951 103.101 93.032C103.494 92.669 103.954 92.3869 104.456 92.2018C104.958 92.0167 105.491 91.9322 106.026 91.9532C106.56 91.9742 107.085 92.1003 107.571 92.3242L123.597 99.6911C124.083 99.9144 124.52 100.231 124.883 100.623C125.246 101.015 125.528 101.475 125.714 101.976C125.899 102.476 125.984 103.009 125.963 103.543C125.943 104.077 125.817 104.601 125.594 105.086Z" fill="#3F3D56"/>
<path d="M122.024 146.93C121.49 146.93 120.96 146.825 120.467 146.62C119.973 146.416 119.524 146.116 119.146 145.739C118.768 145.361 118.468 144.913 118.263 144.419C118.059 143.926 117.954 143.397 117.954 142.863V125.237C117.955 124.159 118.384 123.126 119.148 122.364C119.911 121.602 120.946 121.175 122.024 121.175C123.103 121.175 124.138 121.602 124.901 122.364C125.665 123.126 126.094 124.159 126.095 125.237V142.863C126.095 143.397 125.99 143.926 125.785 144.419C125.581 144.913 125.281 145.361 124.903 145.739C124.525 146.116 124.076 146.416 123.582 146.62C123.088 146.825 122.559 146.93 122.024 146.93V146.93Z" fill="#3F3D56"/>
<path d="M170.878 31.6859C171.112 31.032 171.173 30.3286 171.055 29.6442L168.84 16.6214L166.624 3.59865C166.504 2.89552 166.202 2.23623 165.746 1.68705C165.291 1.13788 164.699 0.718178 164.029 0.47012C163.36 0.222062 162.637 0.154387 161.933 0.273911C161.23 0.393434 160.57 0.695944 160.02 1.15102L149.84 9.57952L143.933 14.4708C139.822 13.8677 135.642 13.9307 131.552 14.6574L125.419 9.5795L115.239 1.15101C114.689 0.695924 114.029 0.393417 113.325 0.273893C112.622 0.154368 111.899 0.222035 111.23 0.470093C110.56 0.718152 109.968 1.13786 109.513 1.68703C109.057 2.23621 108.754 2.8955 108.635 3.59864L106.419 16.6214L104.204 29.6442C104.106 30.201 104.127 30.7722 104.267 31.3201C104.406 31.868 104.66 32.3802 105.012 32.8229C101.413 38.7677 99.4756 45.5674 99.3997 52.5143C99.3238 59.4613 101.113 66.3016 104.58 72.3234C108.048 78.3453 113.067 83.3285 119.116 86.7547C125.165 90.1808 132.022 91.9246 138.975 91.8046C145.927 91.6846 152.72 89.7051 158.647 86.0722C164.574 82.4393 169.418 77.2858 172.675 71.1478C175.932 65.0099 177.483 58.112 177.167 51.1718C176.851 44.2316 174.679 37.5029 170.878 31.6859H170.878Z" fill="#3F3D56"/>
<path d="M159.763 6.953L147.418 17.1738L147.418 17.1743C147.146 17.3996 146.938 17.6924 146.815 18.0235C146.692 18.3545 146.658 18.712 146.718 19.0601C146.777 19.4082 146.927 19.7345 147.152 20.0064C147.378 20.2782 147.671 20.486 148.002 20.6088L163.034 26.1803C163.365 26.3031 163.723 26.3367 164.072 26.2775C164.42 26.2183 164.747 26.0686 165.019 25.8433C165.291 25.618 165.499 25.3251 165.622 24.994C165.745 24.663 165.778 24.3054 165.719 23.9573L163.032 8.1647C162.975 7.81579 162.826 7.48841 162.6 7.2162C162.374 6.94399 162.08 6.73676 161.747 6.61581C161.521 6.53136 161.282 6.48795 161.04 6.4876C160.573 6.48848 160.121 6.65318 159.763 6.953V6.953Z" fill="#E6E6E6"/>
<path d="M113.512 6.61581C113.179 6.73676 112.885 6.94398 112.659 7.21619C112.433 7.4884 112.284 7.81579 112.227 8.1647L109.54 23.9573C109.481 24.3054 109.514 24.663 109.637 24.994C109.76 25.3251 109.968 25.618 110.24 25.8433C110.512 26.0686 110.839 26.2183 111.187 26.2775C111.536 26.3367 111.894 26.3031 112.225 26.1803L127.257 20.6088C127.588 20.486 127.881 20.2782 128.107 20.0064C128.332 19.7345 128.482 19.4082 128.541 19.0601C128.6 18.712 128.567 18.3545 128.444 18.0235C128.321 17.6924 128.113 17.3996 127.841 17.1743L115.496 6.953C115.138 6.65317 114.686 6.48847 114.219 6.4876C113.977 6.48795 113.738 6.53137 113.512 6.61581Z" fill="#E6E6E6"/>
<path d="M138.308 63.7739C141.306 63.7739 143.736 61.3459 143.736 58.3507C143.736 55.3555 141.306 52.9275 138.308 52.9275C135.31 52.9275 132.88 55.3555 132.88 58.3507C132.88 61.3459 135.31 63.7739 138.308 63.7739Z" fill="#E6E6E6"/>
<path d="M138.308 56.9949C140.306 56.9949 141.926 56.3879 141.926 55.6391C141.926 54.8903 140.306 54.2833 138.308 54.2833C136.309 54.2833 134.689 54.8903 134.689 55.6391C134.689 56.3879 136.309 56.9949 138.308 56.9949Z" fill="#3F3D56"/>
<path d="M138.534 70.101C138.207 70.101 137.884 70.0367 137.582 69.9118C137.28 69.7869 137.006 69.6038 136.775 69.373C136.544 69.1422 136.361 68.8681 136.236 68.5666C136.111 68.265 136.046 67.9418 136.046 67.6153V61.5142H141.022V67.6153C141.022 67.9418 140.958 68.265 140.833 68.5666C140.707 68.8681 140.524 69.1422 140.293 69.373C140.062 69.6038 139.788 69.7869 139.486 69.9118C139.184 70.0367 138.861 70.101 138.534 70.101V70.101Z" fill="#FF6584"/>
<path d="M138.006 0C138.267 0.540588 138.52 1.08702 138.758 1.64463C141.566 8.18578 142.512 15.3739 141.494 22.4179C140.985 21.6797 140.45 20.9105 139.905 20.1329C141.071 13.3724 140.416 6.42372 138.006 0V0Z" fill="#3F3D56"/>
<path d="M133.935 4.97129C134.196 5.51188 134.449 6.05831 134.688 6.61592C137.495 13.1571 138.441 20.3452 137.423 27.3893C136.914 26.651 136.379 25.8818 135.834 25.1042C137 18.3437 136.345 11.395 133.935 4.97129V4.97129Z" fill="#3F3D56"/>
<path d="M121.384 23.479L121.958 16.1921L122.531 8.9051C122.562 8.51164 122.696 8.13327 122.92 7.808C123.144 7.48273 123.449 7.22202 123.806 7.05209C124.162 6.88216 124.557 6.80899 124.951 6.83993C125.345 6.87087 125.723 7.00483 126.049 7.22836L132.078 11.3681L136.481 14.391C136.762 14.0618 137.112 13.7975 137.505 13.6163C137.899 13.435 138.327 13.3412 138.76 13.3412C139.194 13.3412 139.622 13.435 140.015 13.6163C140.409 13.7975 140.758 14.0618 141.039 14.391L145.442 11.3681L151.472 7.22836C151.797 7.00483 152.176 6.87087 152.57 6.83993C152.963 6.80899 153.358 6.88216 153.715 7.05209C154.071 7.22202 154.377 7.48273 154.601 7.808C154.824 8.13327 154.958 8.51164 154.989 8.9051L155.563 16.1921L156.136 23.479C156.167 23.8725 156.094 24.2671 155.924 24.6233C155.754 24.9795 155.493 25.2847 155.167 25.5082C154.842 25.7317 154.463 25.8657 154.069 25.8966C153.676 25.9276 153.281 25.8544 152.924 25.6845L146.321 22.5372L140.896 19.9513C140.617 20.2339 140.284 20.4583 139.918 20.6114C139.551 20.7646 139.158 20.8435 138.76 20.8435C138.363 20.8435 137.969 20.7646 137.603 20.6114C137.236 20.4583 136.904 20.2339 136.624 19.9513L131.199 22.5372L124.596 25.6845C124.24 25.8544 123.845 25.9276 123.451 25.8967C123.057 25.8657 122.679 25.7318 122.353 25.5083C122.028 25.2847 121.767 24.9795 121.597 24.6233C121.426 24.2671 121.353 23.8725 121.384 23.479V23.479Z" fill="#FF002E"/>
<path d="M144.188 52.4755C144.188 53.2243 144.796 52.4755 145.545 52.4755C146.295 52.4755 146.902 53.2243 146.902 52.4755C146.901 52.1164 146.758 51.7723 146.504 51.5186C146.249 51.265 145.904 51.1226 145.545 51.1226C145.186 51.1226 144.841 51.265 144.587 51.5186C144.332 51.7723 144.189 52.1164 144.188 52.4755V52.4755Z" fill="#E6E6E6"/>
<path d="M132.428 52.4755C132.428 53.2243 131.82 52.4755 131.071 52.4755C130.321 52.4755 129.714 53.2243 129.714 52.4755C129.715 52.1164 129.858 51.7723 130.112 51.5186C130.367 51.265 130.711 51.1226 131.071 51.1226C131.43 51.1226 131.775 51.265 132.029 51.5186C132.284 51.7723 132.427 52.1164 132.428 52.4755V52.4755Z" fill="#E6E6E6"/>
<path d="M282.978 154.843V146.225H239.851V146.764V154.843V224.326V232.944H248.477H282.978V224.326H248.477V154.843H282.978Z" fill="#3F3D56"/>
<path d="M304.003 146.225V232.944H347.13V146.225H304.003ZM338.504 224.326H312.628V154.843H338.504V224.326Z" fill="#FF002E"/>
<path d="M184.325 224.326V146.764H175.7V224.326V232.944H184.325H218.827V224.326H184.325Z" fill="#FF002E"/>
<path d="M156.293 154.843V146.225H113.165V146.764V154.843V185.006V193.625V224.326V232.944H121.791H156.293V224.326H121.791V193.625H156.293V185.006H121.791V154.843H156.293Z" fill="#3F3D56"/>
<path d="M493.762 154.843V146.225H450.635V146.764V154.843V185.006V193.625V224.326V232.944H459.26H493.762V224.326H459.26V193.625H493.762V185.006H459.26V154.843H493.762Z" fill="#FF002E"/>
<path d="M84.0547 146.764V217.99L61.3123 195.268L61.2605 195.32L61.2123 195.272L37.9628 218.502V146.495H29.3373V232.675H37.9628V230.689L61.2646 207.407L84.0547 230.179V232.944H92.6802V146.764H84.0547Z" fill="#3F3D56"/>
<path d="M422.063 146.764V148.749L398.762 172.031L375.971 149.261V146.495H367.345V232.675H375.971V161.448L398.713 184.171L398.766 184.119L398.813 184.167L422.063 160.937V232.944H430.688V146.764H422.063Z" fill="#3F3D56"/>
<path d="M197.109 93.6752C200.033 93.6752 202.403 91.3069 202.403 88.3855C202.403 85.464 200.033 83.0957 197.109 83.0957C194.185 83.0957 191.814 85.464 191.814 88.3855C191.814 91.3069 194.185 93.6752 197.109 93.6752Z" fill="#FF002E"/>
<path d="M66.5169 152.45C69.4408 152.45 71.8111 150.082 71.8111 147.16C71.8111 144.239 69.4408 141.871 66.5169 141.871C63.5929 141.871 61.2226 144.239 61.2226 147.16C61.2226 150.082 63.5929 152.45 66.5169 152.45Z" fill="#FF002E"/>
<path d="M171.226 270C174.15 270 176.52 267.632 176.52 264.71C176.52 261.789 174.15 259.421 171.226 259.421C168.302 259.421 165.931 261.789 165.931 264.71C165.931 267.632 168.302 270 171.226 270Z" fill="#FF002E"/>
<path d="M304.17 109.544C307.094 109.544 309.465 107.176 309.465 104.255C309.465 101.333 307.094 98.9649 304.17 98.9649C301.246 98.9649 298.876 101.333 298.876 104.255C298.876 107.176 301.246 109.544 304.17 109.544Z" fill="#FF002E"/>
<path d="M460.057 265.298C462.981 265.298 465.351 262.93 465.351 260.008C465.351 257.087 462.981 254.719 460.057 254.719C457.133 254.719 454.763 257.087 454.763 260.008C454.763 262.93 457.133 265.298 460.057 265.298Z" fill="#FF002E"/>
<path d="M465.351 126.589C468.275 126.589 470.646 124.221 470.646 121.299C470.646 118.378 468.275 116.01 465.351 116.01C462.427 116.01 460.057 118.378 460.057 121.299C460.057 124.221 462.427 126.589 465.351 126.589Z" fill="#FF002E"/>
<path d="M398.291 221.805C401.215 221.805 403.585 219.436 403.585 216.515C403.585 213.593 401.215 211.225 398.291 211.225C395.367 211.225 392.996 213.593 392.996 216.515C392.996 219.436 395.367 221.805 398.291 221.805Z" fill="#FF002E"/>
</svg>
